<?xml version="1.0" encoding="utf-8"?>
<!-- Svg Vector Icons : http://www.onlinewebfonts.com/icon -->
<!DOCTYPE svg PUBLIC "-//W3C//DTD SVG 1.1//EN" "http://www.w3.org/Graphics/SVG/1.1/DTD/svg11.dtd">
<svg version="1.1" xmlns="http://www.w3.org/2000/svg" xmlns:xlink="http://www.w3.org/1999/xlink" x="0px" y="0px" viewBox="0 0 1000 1000" enable-background="new 0 0 1000 1000" xml:space="preserve">
<metadata> Svg Vector Icons : http://www.onlinewebfonts.com/icon </metadata>
<g><path d="M739.1,449c0-197.1-163.6-357.4-364.6-357.4C173.6,91.7,10,252,10,449c0,100.5,42.3,194.7,116.9,262.3l-67.8,97.2c-6.6,9.5-6.5,22.1,0.2,31.4c5.2,7.3,13.5,11.4,22.1,11.4c2.5,0,5-0.4,7.5-1.1l193.1-55.4c30,7.7,61.1,11.6,92.5,11.6C575.6,806.4,739.1,646.1,739.1,449z M374.6,752c-29.1,0-57.8-3.9-85.4-11.6c-4.8-1.3-10-1.4-14.8,0.1l-126.7,36.3l38.1-54.6c8.2-11.8,5.8-28-5.5-37C106.6,627.3,64.4,541.2,64.4,449c0-167,139.1-302.9,310.1-302.9c171,0,310.1,135.9,310.1,302.9C684.7,616.1,545.6,752,374.6,752z"/><path d="M888.5,779.5C953.3,720.6,990,638.6,990,551.1c0-138.4-91.7-260.6-223-297.3c-14.2-4-29.5,4.4-33.5,18.9c-4,14.5,4.4,29.5,18.9,33.5c107.8,30.2,183.2,130.9,183.2,244.9c0,78.2-35.8,151.2-98.2,200.3c-10.4,8.2-13.4,22.5-7.2,34.2l24.7,46.4l-93.6-33.2c-5.2-1.9-11-2.1-16.4-0.6c-23.5,6.5-47.9,9.9-72.5,9.9c-45.9,0-63.5-1.4-96.7-17.6c-13.5-6.6-29.8-0.9-36.4,12.6c-6.6,13.5-1,29.8,12.6,36.4c45.1,22,73.8,23,120.5,23c26.6,0,53-3.2,78.7-9.6l151.7,53.8c3,1.1,6.1,1.6,9.1,1.6c7.8,0,15.4-3.3,20.6-9.5c7.3-8.5,8.7-20.6,3.4-30.5L888.5,779.5z"/><path d="M391.1,227.8c-27.7,0-54.3,8.2-77.1,23.7c-37,25.2-59,66.6-59,111c0,15,12.2,27.2,27.2,27.2c15,0,27.2-12.2,27.2-27.2c0-26.3,13.2-51,35.2-66c13.7-9.3,29.7-14.2,46.4-14.2c45,0,81.7,36,81.7,80.2c0,16-4.8,31.5-13.8,44.7c-15.2,22.2-40.6,35.5-69.1,35.6c-27.4,1.3-55.1,19.4-55.1,51.6v60.2c0,15.1,12.2,27.2,27.2,27.2c15,0,27.2-12.2,27.2-27.2v-56.7c0.9-0.3,1.7-0.5,1.9-0.6c45.2,0,87.4-22.1,112.8-59.2c15.2-22.3,23.3-48.4,23.3-75.5C527.2,288.2,466.2,227.8,391.1,227.8z"/><path d="M334.5,636.1c0,15,12.2,27.2,27.2,27.2c15,0,27.2-12.2,27.2-27.2c0-15-12.2-27.2-27.2-27.2C346.7,608.9,334.5,621.1,334.5,636.1z"/></g>
</svg>